<?xml version="1.0" encoding="UTF-8" standalone="no"?>
<!-- Generator: Adobe Illustrator 16.0.4, SVG Export Plug-In . SVG Version: 6.00 Build 0)  -->

<svg
   xmlns:dc="http://purl.org/dc/elements/1.1/"
   xmlns:cc="http://creativecommons.org/ns#"
   xmlns:rdf="http://www.w3.org/1999/02/22-rdf-syntax-ns#"
   xmlns:svg="http://www.w3.org/2000/svg"
   xmlns="http://www.w3.org/2000/svg"
   xmlns:sodipodi="http://sodipodi.sourceforge.net/DTD/sodipodi-0.dtd"
   xmlns:inkscape="http://www.inkscape.org/namespaces/inkscape"
   version="1.1"
   id="Capa_1"
   x="0px"
   y="0px"
   width="64px"
   height="64px"
   viewBox="0 0 64 64"
   enable-background="new 0 0 64 64"
   xml:space="preserve"
   inkscape:version="0.48.5 r10040"
   sodipodi:docname="add_grey.svg"><metadata
     id="metadata9"><rdf:RDF><cc:Work
         rdf:about=""><dc:format>image/svg+xml</dc:format><dc:type
           rdf:resource="http://purl.org/dc/dcmitype/StillImage" /><dc:title></dc:title></cc:Work></rdf:RDF></metadata><defs
     id="defs7" /><sodipodi:namedview
     pagecolor="#ffffff"
     bordercolor="#666666"
     borderopacity="1"
     objecttolerance="10"
     gridtolerance="10"
     guidetolerance="10"
     inkscape:pageopacity="0"
     inkscape:pageshadow="2"
     inkscape:window-width="1366"
     inkscape:window-height="703"
     id="namedview5"
     showgrid="false"
     inkscape:zoom="3.6875"
     inkscape:cx="-29.423729"
     inkscape:cy="32"
     inkscape:window-x="0"
     inkscape:window-y="35"
     inkscape:window-maximized="1"
     inkscape:current-layer="Capa_1" /><path
     d="M52.533,10.752h-39.5c-1.657,0-3,1.343-3,3v36.609c0,1.658,1.343,3,3,3h39.5c1.656,0,3-1.342,3-3V13.752  C55.533,12.095,54.189,10.752,52.533,10.752z M47.669,35.562c0,0.554-0.446,1-1,1H38.29c-0.554,0-1,0.447-1,1v8.379  c0,0.554-0.447,1-1,1h-7.014c-0.553,0-1-0.446-1-1v-8.379c0-0.553-0.447-1-1-1h-8.379c-0.553,0-1-0.446-1-1V28.55  c0-0.553,0.447-1,1-1h8.379c0.553,0,1-0.447,1-1v-8.378c0-0.553,0.447-1,1-1h7.014c0.553,0,1,0.447,1,1v8.378c0,0.553,0.446,1,1,1  h8.379c0.554,0,1,0.447,1,1V35.562z"
     id="path3"
     style="fill:#ffffff;fill-opacity:1" /></svg>