<?xml version="1.0" encoding="UTF-8" standalone="no"?>
<!-- Created with Inkscape (http://www.inkscape.org/) -->

<svg
   xmlns:dc="http://purl.org/dc/elements/1.1/"
   xmlns:cc="http://creativecommons.org/ns#"
   xmlns:rdf="http://www.w3.org/1999/02/22-rdf-syntax-ns#"
   xmlns:svg="http://www.w3.org/2000/svg"
   xmlns="http://www.w3.org/2000/svg"
   version="1.1"
   width="1000"
   height="750"
   id="svg2"
   xml:space="preserve"><metadata
     id="metadata8"><rdf:RDF><cc:Work
         rdf:about=""><dc:format>image/svg+xml</dc:format><dc:type
           rdf:resource="http://purl.org/dc/dcmitype/StillImage" /><dc:title></dc:title></cc:Work></rdf:RDF></metadata><defs
     id="defs6"><clipPath
       id="clipPath16"><path
         d="M 0,600 800,600 800,0 0,0 0,600 z"
         id="path18" /></clipPath><clipPath
       id="clipPath88"><path
         d="M 0,600 800,600 800,0 0,0 0,600 z"
         id="path90" /></clipPath></defs><g
     transform="matrix(1.25,0,0,-1.25,0,750)"
     id="g10"><g
       id="g12"><g
         clip-path="url(#clipPath16)"
         id="g14"><g
           transform="translate(407.458,587.9443)"
           id="g20"><path
             d="M 0,0 C 155.974,0 282.417,-126.443 282.417,-282.426"
             id="path22"
             style="fill:#00b4ff;fill-opacity:1;fill-rule:nonzero;stroke:#00b4ff;stroke-width:2.31599998;stroke-linecap:butt;stroke-linejoin:miter;stroke-miterlimit:4;stroke-opacity:1;stroke-dasharray:none" /></g><g
           transform="translate(125.0386,305.5181)"
           id="g24"><path
             d="M 0,0 C 0,155.983 126.441,282.426 282.419,282.426"
             id="path26"
             style="fill:#00b4ff;fill-opacity:1;fill-rule:nonzero;stroke:#00b4ff;stroke-width:2.31599998;stroke-linecap:butt;stroke-linejoin:miter;stroke-miterlimit:4;stroke-opacity:1;stroke-dasharray:none" /></g><g
           transform="translate(407.458,23.1006)"
           id="g28"><path
             d="M 0,0 C -155.978,0 -282.419,126.446 -282.419,282.417"
             id="path30"
             style="fill:#00b4ff;fill-opacity:1;fill-rule:nonzero;stroke:#00b4ff;stroke-width:2.31599998;stroke-linecap:butt;stroke-linejoin:miter;stroke-miterlimit:4;stroke-opacity:1;stroke-dasharray:none" /></g><g
           transform="translate(689.875,305.5181)"
           id="g32"><path
             d="M 0,0 C 0,-155.971 -126.443,-282.417 -282.417,-282.417"
             id="path34"
             style="fill:#00b4ff;fill-opacity:1;fill-rule:nonzero;stroke:#00b4ff;stroke-width:2.31599998;stroke-linecap:butt;stroke-linejoin:miter;stroke-miterlimit:4;stroke-opacity:1;stroke-dasharray:none" /></g><g
           transform="translate(299.5508,320.0732)"
           id="g36"><path
             d="m 0,0 c -3.828,-6.651 -9.206,-14.911 -17.412,-16.339 -5.793,-1.008 -10.893,3.032 -14.384,7.162 -8.752,10.354 -11.882,26.152 -10.436,39.329 1.241,11.324 14.035,33.753 25.879,18.964 C -8.15,38.875 -6.924,20.217 -13.499,9 l 1.874,0.206 c -3.243,8.543 -4.408,17.747 -4.496,26.844 -0.008,0.887 -1.941,0.505 -1.941,-0.209 0.024,-30.854 2.756,-65.546 -10.437,-94.339 0.625,0.069 1.249,0.138 1.874,0.207 -2.965,15.781 -1.548,31.895 -1.496,47.844 -0.645,-0.121 -1.29,-0.242 -1.936,-0.364 6.095,-31.588 1.58,-63.962 1.496,-95.84 0.645,0.121 1.29,0.242 1.936,0.363 -1.433,16.414 -1.495,32.879 -1.496,49.343 0,0.885 -1.94,0.505 -1.94,-0.209 l 0,-25.498 c 0,-0.886 1.94,-0.505 1.94,0.209 l 0,25.498 c -0.647,-0.07 -1.293,-0.14 -1.94,-0.209 0,-16.568 0.062,-33.135 1.504,-49.652 0.061,-0.699 1.935,-0.293 1.936,0.364 0.085,31.978 4.61,64.458 -1.504,96.149 -0.137,0.71 -1.934,0.285 -1.936,-0.363 -0.053,-16.05 -1.481,-32.27 1.504,-48.153 0.136,-0.719 1.665,-0.25 1.874,0.207 13.26,28.94 10.586,63.636 10.562,94.652 -0.647,-0.07 -1.294,-0.139 -1.941,-0.209 0.09,-9.205 1.222,-18.505 4.505,-27.153 0.266,-0.7 1.591,-0.275 1.873,0.207 7.125,12.156 5.407,32.449 -4.438,42.793 -10.76,11.308 -23.706,-5.328 -26.72,-15.145 -4.481,-14.593 -0.616,-32.931 8.214,-45.167 3.352,-4.646 8.112,-8.428 13.948,-9.014 6.195,-0.622 11.689,3.459 15.654,7.739 2.71,2.925 4.861,6.354 6.841,9.795 C 2.306,0.747 0.352,0.61 0,0"
             id="path38"
             style="fill:#00b4ff;fill-opacity:1;fill-rule:nonzero;stroke:none" /></g><g
           transform="translate(229.647,372.9688)"
           id="g40"><path
             d="m 0,0 c -0.047,-14.852 -0.124,-29.287 1.291,-44.141 1.59,-16.691 9.61,-36.084 25.035,-44.458 l 11.291,-5.888 c 9.199,-3.238 18.668,-4.477 28.406,-3.717 15.551,1.078 31.148,6.575 43.548,16.109 9.984,7.677 18.647,18.76 20.053,31.697 1.19,10.95 -4.198,24.602 -14.327,30.101 -1.278,0.693 -2.377,1.499 -3.439,2.49 l 8.473,-8.251 c -1.497,1.568 -2.65,3.289 -3.656,5.206 1.665,-3.457 3.331,-6.914 4.997,-10.37 -3.071,6.409 -4.094,13.531 -4.687,20.548 0.286,-3.826 0.572,-7.653 0.858,-11.48 -0.748,10.089 -0.25,20.155 -0.218,30.253 0.04,12.588 -3.722,22.553 -14.327,30.101 C 91.952,46.275 77.222,48.749 63.601,47.805 48.05,46.728 32.453,41.23 20.053,31.696 11.021,24.751 0.039,12.375 0,0"
             id="path42"
             style="fill:#00b4ff;fill-opacity:1;fill-rule:nonzero;stroke:none" /></g><g
           transform="translate(196.6997,255.1748)"
           id="g44"><path
             d="m 0,0 c 37.838,0 75.782,0.815 113.605,-0.273 -4.986,0.147 -9.972,0.294 -14.957,0.442 31.852,-1.017 63.537,-4.402 95.199,-7.852 17.453,-1.901 34.538,-3.689 52.112,-4.1 15.044,-0.352 30.266,2.001 44.837,5.534 18.161,4.404 35.755,12.794 50.737,23.932 12.936,9.618 25.349,24.043 30.802,39.414 6.115,17.234 6.713,33.065 3.166,51.081 -2.722,13.828 -8.706,27.379 -16.053,39.31 -6.06,9.841 -15.167,18.886 -24.93,24.957 -6.686,4.159 -14.101,8.161 -21.765,10.396 -15.028,4.385 -25.049,5.126 -40.738,5.348 -14.885,0.211 -31.96,-7.195 -43.546,-16.118 -9.953,-7.666 -18.696,-18.82 -20.038,-31.753 -5.249,-50.609 -15.04,-100.8 -28.806,-149.774 1.069,3.802 2.137,7.603 3.206,11.404 -2.727,-9.623 -5.618,-19.197 -8.692,-28.716 36.189,6.181 72.376,12.363 108.565,18.544 C 266.9,8.907 252.356,27.288 242.131,48.348 l 5.004,-10.395 c -9.387,19.757 -14.23,40.92 -15.874,62.675 0.288,-3.835 0.576,-7.67 0.864,-11.504 -0.257,3.746 -0.437,7.492 -0.55,11.245 l -0.865,11.505 c -2.295,7.802 -6.791,14.025 -13.482,18.669 -11.344,8.093 -26.077,10.587 -39.708,9.648 -15.554,-1.07 -31.152,-6.572 -43.546,-16.118 -8.749,-6.738 -20.405,-19.562 -20.038,-31.753 0.845,-28.08 4.095,-55.899 15.586,-81.762 11.807,-26.578 27.609,-49.308 47.279,-70.631 5.195,-6.654 11.786,-11.381 19.775,-14.182 9.199,-3.249 18.67,-4.496 28.412,-3.74 10.797,0.79 21.068,3.542 30.814,8.256 11.009,5.385 25.541,15.756 29.564,28.21 19.911,61.645 34.018,125.435 40.704,189.896 -21.195,-15.957 -42.389,-31.914 -63.584,-47.871 0.488,-0.008 0.976,-0.015 1.465,-0.021 -4.986,0.147 -9.972,0.295 -14.957,0.442 3.25,-0.139 6.412,-0.539 9.586,-1.256 -4.486,1.099 -8.97,2.198 -13.455,3.297 3.339,-0.863 6.494,-2.042 9.573,-3.597 -3.765,1.97 -7.531,3.939 -11.296,5.908 3.662,-1.988 6.948,-4.388 9.999,-7.224 -2.827,2.758 -5.653,5.516 -8.48,8.274 5.162,-5.049 9.139,-10.946 12.343,-17.397 -1.668,3.465 -3.336,6.931 -5.004,10.395 4.679,-9.83 7.767,-20.625 8.663,-31.489 -0.288,3.835 -0.576,7.669 -0.864,11.504 0.345,-5.687 -0.04,-11.265 -1.507,-16.781 1.069,3.802 2.138,7.603 3.206,11.405 -1.115,-3.784 -2.678,-7.305 -4.771,-10.648 2.276,3.588 4.552,7.176 6.828,10.764 -1.725,-2.596 -3.68,-4.949 -5.898,-7.137 3.334,3.194 6.669,6.388 10.004,9.583 -2.565,-2.411 -5.337,-4.496 -8.328,-6.35 4.244,2.621 8.489,5.242 12.732,7.862 -3.158,-1.871 -6.44,-3.432 -9.859,-4.767 5.004,1.866 10.008,3.733 15.013,5.6 -5.107,-1.9 -10.349,-3.24 -15.714,-4.177 5.267,0.885 10.534,1.771 15.801,2.657 -7.312,-1.185 -14.676,-1.605 -22.077,-1.432 4.985,-0.147 9.97,-0.295 14.957,-0.443 -17.997,0.597 -36.066,3.564 -53.963,5.476 -21.556,2.304 -43.142,4.352 -64.796,5.479 -47.286,2.461 -94.822,1.271 -142.159,1.271 -15.009,0 -31.819,-7.087 -43.545,-16.118 C -44.008,63.88 -52.658,52.775 -54.055,39.822 -55.364,27.691 -49.456,16.603 -39.708,9.648 -27.772,1.134 -14.133,0 0,0"
             id="path46"
             style="fill:#00b4ff;fill-opacity:1;fill-rule:nonzero;stroke:none" /></g><g
           transform="translate(579.2832,272.6455)"
           id="g48"><path
             d="m 0,0 c 27.793,0 58.18,7.199 81.961,21.962 4.422,2.745 15.606,9.657 13.654,16.944 -1.923,7.176 -15.136,7.848 -20.297,7.848 -27.793,0 -58.179,-7.199 -81.961,-21.962 C -11.064,22.047 -22.249,15.135 -20.297,7.848 -18.374,0.673 -5.16,0 0,0"
             id="path50"
             style="fill:#00b4ff;fill-opacity:1;fill-rule:nonzero;stroke:none" /></g><g
           transform="translate(558.9863,274.4932)"
           id="g52"><path
             d="M 0,0 C 0.602,-3.875 1.049,-7.752 1.273,-11.668 1.119,-8.33 0.964,-4.992 0.81,-1.655 c 0.308,-7.396 -0.267,-14.704 -2.6,-21.763 1.188,3.355 2.377,6.71 3.565,10.064 -1.556,-4.364 -3.708,-8.36 -6.456,-12.088 2.377,3.21 4.755,6.419 7.132,9.629 -2.882,-3.75 -6.204,-7.048 -9.799,-10.113 3.413,2.903 6.827,5.804 10.24,8.706 -11.806,-9.827 -25.408,-17.241 -37.983,-25.995 -18.224,-12.687 -36.158,-25.778 -55.43,-36.867 4.294,2.433 8.589,4.864 12.883,7.296 -7.467,-4.215 -14.914,-8.467 -22.373,-12.696 4.295,2.432 8.589,4.864 12.884,7.295 -2.648,-1.486 -5.299,-2.982 -8.124,-4.11 5.022,1.8 10.044,3.6 15.066,5.4 -0.848,-0.303 -1.681,-0.552 -2.566,-0.719 5.249,0.952 10.498,1.904 15.747,2.857 -0.37,-0.058 -0.742,-0.089 -1.116,-0.089 4.934,0.041 9.87,0.082 14.806,0.123 -0.348,0 -0.692,0.033 -1.033,0.097 4.408,-0.807 8.814,-1.613 13.221,-2.42 -0.332,0.064 -0.653,0.159 -0.967,0.286 l 10.992,-4.772 c -0.674,0.313 -1.24,0.688 -1.816,1.158 2.707,-2.312 5.413,-4.622 8.12,-6.934 -3.419,3.189 -5.567,7.795 -7.889,11.778 l 4.606,-8.904 c -3.582,7 -4.49,14.99 -4.882,22.741 0.155,-3.338 0.31,-6.675 0.464,-10.013 -1.124,28.039 6.171,55.771 4.882,83.754 -0.969,21.012 -3.16,41.5 -9.895,61.533 -6.986,20.78 -18.628,39.598 -28.691,58.961 1.535,-2.968 3.069,-5.936 4.604,-8.904 -5.775,11.258 -11.473,23.282 -13.679,35.841 -1.658,9.438 -1.258,19.384 -5.153,28.315 -4.793,10.987 -9.232,16.742 -19.276,23.658 -9.069,6.245 -21.344,8.61 -32.005,9.792 -19.051,2.112 -38.833,-2.548 -56.211,-10.077 -20.796,-9.012 -37.767,-25.641 -48.293,-45.559 -7.889,-14.927 -12.853,-31.658 -17.143,-47.935 -6.917,-26.237 -11.163,-53.135 -15.718,-79.856 -3.824,-22.44 -6.92,-45.715 -14.531,-67.268 1.189,3.355 2.377,6.71 3.565,10.064 -1.573,-4.371 -3.375,-8.766 -6.136,-12.538 2.378,3.21 4.756,6.419 7.133,9.629 -0.531,-0.699 -1.092,-1.364 -1.705,-1.993 35.225,0.451 70.451,0.901 105.677,1.353 -15.758,33.178 -25.53,68.259 -27.351,105.013 0.155,-3.337 0.31,-6.675 0.465,-10.012 -1.326,30.145 2.029,60.187 6.351,89.976 1.588,10.947 -3.997,20.252 -13.188,25.849 -12.056,7.342 -25.441,7.391 -39.017,7.07 -18.237,-0.431 -38.074,-7.954 -54.316,-15.62 -17.073,-8.058 -32.595,-17.967 -46.302,-30.938 -12.099,-11.451 -18.375,-28.225 -19.236,-44.592 -0.599,-11.412 0.925,-22.823 0.35,-34.234 -0.699,-13.867 -4.384,-27.785 -7.349,-41.294 -3.313,-15.093 -5.607,-29.997 -7.08,-45.367 -1.347,-14.064 -1.469,-27.813 -0.596,-41.931 0.55,-8.877 2.467,-17.598 6.274,-25.659 5.475,-11.592 11.614,-21.36 20.949,-30.097 11.069,-10.36 23.287,-19.89 36.343,-27.639 12.942,-7.683 27.307,-13.73 41.858,-17.588 14.465,-3.835 29.341,-5.591 44.149,-7.431 15.334,-1.905 30.707,-3.497 46.132,-4.449 22.236,-1.372 45.251,-2.257 67.326,1.178 34.23,5.325 79.832,18.797 88.875,57.463 3.471,14.843 -6.286,30.241 -15.878,40.554 -12.062,12.968 -26.725,24 -41.429,33.821 -14.41,9.623 -29.607,18.102 -45.238,25.567 -17.508,8.36 -35.699,16.389 -54.561,21.227 -23.566,6.044 -50.495,8.919 -74.037,1.007 -22.392,-7.527 -45.764,-19.329 -56.483,-41.925 -3.991,-8.413 -6.948,-19.276 -3.254,-28.452 4.153,-10.32 10.08,-16.826 19.592,-22.789 13.856,-8.688 32.552,-12.931 48.629,-13.752 11.037,-0.564 20.187,0.24 30.694,2.007 6.384,1.075 12.81,2.056 19.294,2.192 l -14.806,-0.123 c 2.501,0.017 4.977,-0.102 7.444,-0.531 -4.406,0.808 -8.813,1.615 -13.219,2.421 1.264,-0.256 2.479,-0.589 3.679,-1.066 -3.664,1.591 -7.328,3.182 -10.991,4.772 1.049,-0.471 1.988,-1.024 2.872,-1.762 -2.706,2.311 -5.413,4.623 -8.12,6.933 0.663,-0.63 1.19,-1.289 1.65,-2.079 -1.534,2.968 -3.069,5.936 -4.604,8.904 0.625,-1.279 0.894,-2.554 0.967,-3.971 -0.155,3.337 -0.309,6.675 -0.464,10.013 -0.013,-2.167 -0.48,-4.203 -1.143,-6.258 1.189,3.355 2.377,6.71 3.565,10.064 -0.608,-1.697 -1.321,-3.33 -2.109,-4.952 37.758,0.323 75.516,0.646 113.275,0.969 5.385,62.794 14.998,126.155 36.015,185.79 -1.188,-3.354 -2.377,-6.709 -3.564,-10.064 6.281,17.611 13.626,34.211 23.138,50.292 5.691,9.621 10.591,20.724 11.694,31.901 1.549,15.701 -3.127,29.818 -12.585,42.305 -6.538,8.63 -16.282,15.833 -26.128,20.357 -6.964,3.2 -13.934,6.279 -21.252,8.525 -13.156,4.038 -26.69,3.962 -40.239,3.669 -19.542,-0.422 -37.801,-6.952 -55.899,-13.51 -4.583,-1.66 -9.123,-3.437 -13.699,-5.117 -11.979,-4.399 -21.68,-13.774 -30.959,-22.055 3.413,2.902 6.826,5.804 10.239,8.706 -1.365,-1.15 -2.756,-2.155 -4.285,-3.079 l 12.883,7.297 c -0.929,-0.52 -1.888,-0.976 -2.877,-1.369 10.271,2.752 20.542,5.505 30.814,8.257 -1.414,-0.23 -2.787,-0.359 -4.218,-0.424 4.935,0.041 9.87,0.082 14.805,0.123 -12.079,-0.044 -23.94,2.273 -36.086,0.301 -22.913,-3.722 -49.059,-11.914 -61.069,-33.888 -5.093,-9.318 -5.453,-20.431 1.504,-28.981 7.564,-9.295 20.851,-13.4 32.331,-14.126 23.266,-1.469 46.267,2.468 68.56,8.921 14.601,4.226 28.939,9.432 43.904,12.287 -5.249,-0.953 -10.498,-1.905 -15.747,-2.857 5.064,0.91 10.14,1.519 15.287,1.626 -4.935,-0.042 -9.87,-0.083 -14.805,-0.124 3.675,0.01 7.295,-0.25 10.919,-0.867 -4.406,0.806 -8.813,1.614 -13.219,2.42 3.565,-0.698 6.971,-1.731 10.305,-3.177 -3.664,1.591 -7.328,3.182 -10.992,4.772 3.851,-1.804 7.322,-4.065 10.569,-6.808 l -8.119,6.933 c 5.839,-5.094 11.083,-10.782 16.359,-16.444 7.751,-8.321 15.891,-15.746 24.588,-23.113 -2.707,2.311 -5.414,4.622 -8.12,6.933 7.624,-6.668 14.273,-14.301 21.342,-21.534 8.842,-9.048 18.977,-16.733 28.608,-24.906 -2.706,2.311 -5.413,4.623 -8.12,6.934 7.766,-6.688 15.087,-13.969 19.894,-23.124 -1.534,2.968 -3.069,5.936 -4.604,8.903 4.691,-9.5 7.332,-19.822 11.499,-29.544 3.123,-7.289 6.698,-15.114 11.678,-21.391 6.798,-8.568 17.178,-11.908 26.836,-15.837 -3.664,1.591 -7.327,3.182 -10.991,4.772 1.282,-0.557 2.462,-1.143 3.599,-1.959 -2.706,2.311 -5.413,4.622 -8.12,6.933 0.47,-0.373 0.864,-0.814 1.18,-1.322 -1.535,2.967 -3.069,5.935 -4.604,8.903 1.678,-3.64 3.628,-7.148 5.495,-10.694 -1.534,2.967 -3.07,5.935 -4.605,8.903 3.112,-6.352 4.49,-13.147 4.827,-20.182 -0.155,3.338 -0.309,6.675 -0.464,10.013 0.435,-14.718 -3.311,-29.181 -8.146,-42.969 1.189,3.356 2.377,6.71 3.566,10.065 -5.989,-16.717 -13.853,-32.658 -22.335,-48.234 -10.765,-19.764 -25.074,-37.538 -33.369,-58.61 37.604,3.66 75.207,7.321 112.811,10.981 -1.48,5.385 -2.225,10.861 -2.485,16.433 0.155,-3.337 0.309,-6.675 0.463,-10.013 -0.685,21.056 4.948,41.919 11.852,61.627 -1.188,-3.354 -2.377,-6.709 -3.565,-10.064 5.114,14.377 11.174,28.382 17.821,42.112 5.903,12.198 11.85,25.15 19.858,36.126 -2.377,-3.21 -4.755,-6.419 -7.133,-9.629 11.552,15.229 26.741,27.727 35.084,45.322 4.611,9.726 5.762,20.05 -1.504,28.98 -7.681,9.44 -20.756,13.159 -32.331,14.126 -15.496,1.296 -31.528,-1.932 -45.62,-8.379 -11.291,-5.166 -24.689,-13.894 -30.254,-25.631 -1.723,-3.632 -3.794,-6.991 -6.153,-10.242 2.378,3.209 4.756,6.418 7.133,9.628 -5.508,-7.291 -12.04,-13.698 -17.964,-20.638 -7.804,-9.14 -14.272,-18.929 -19.97,-29.43 -8.182,-15.083 -15.662,-30.558 -22.225,-46.414 -7.928,-19.151 -15.034,-39.023 -19.172,-59.374 -3.636,-17.892 -4.616,-37.883 0.253,-55.598 5.776,-21.008 33.837,-24.604 51.742,-22.906 10.725,1.057 20.996,3.809 30.814,8.256 4.293,2.432 8.588,4.864 12.882,7.296 7.202,4.792 12.994,10.904 17.372,18.335 7.228,18.36 19.037,34.139 29.095,50.961 7.233,12.098 13.582,24.901 19.331,37.758 7.602,17.002 14.391,34.994 17.656,53.387 1.79,10.079 1.414,19.997 0.729,30.203 -0.697,10.391 -4.997,18.509 -9.817,27.663 1.535,-2.967 3.07,-5.935 4.604,-8.903 -4.582,9.936 -5.943,11.977 -15.044,18.508 -4.961,3.561 -11.325,5.126 -16.976,7.462 3.664,-1.591 7.327,-3.182 10.991,-4.772 -1.364,0.61 -2.607,1.262 -3.814,2.144 2.706,-2.311 5.413,-4.622 8.119,-6.933 -2.507,2.343 -4.119,5.715 -5.705,8.716 1.536,-2.968 3.07,-5.936 4.605,-8.904 -3.154,6.317 -5.466,12.948 -7.786,19.602 -3.175,9.105 -7.154,17.543 -11.889,25.996 -8.449,15.083 -24.535,25.556 -37.415,36.435 2.706,-2.311 5.413,-4.622 8.119,-6.934 -6.015,5.15 -11.494,10.773 -16.91,16.541 -7.432,7.914 -15.204,14.93 -23.514,21.97 2.706,-2.311 5.413,-4.622 8.119,-6.933 -14.494,12.87 -26.405,27.955 -41.649,40.098 -7.498,5.973 -17.179,9.778 -26.325,12.312 -15.033,4.167 -28.278,4.239 -43.7,3.919 -32.03,-0.664 -61.049,-15.347 -91.975,-21.264 5.249,0.953 10.498,1.905 15.747,2.857 -4.952,-0.892 -9.914,-1.488 -14.949,-1.573 l 14.806,0.123 c -1.597,0.003 -3.184,0.052 -4.778,0.153 -9.077,-25.665 -18.156,-51.33 -27.234,-76.995 1.414,0.23 2.787,0.359 4.218,0.424 -4.935,-0.041 -9.87,-0.082 -14.806,-0.123 11.707,0.043 22.862,-1.678 34.733,-0.52 18.589,1.813 33.58,8.479 49.149,17.878 6.268,3.784 11.336,9.427 16.855,14.231 -3.413,-2.902 -6.826,-5.804 -10.239,-8.706 0.992,0.801 1.989,1.519 3.065,2.204 l -12.883,-7.296 c 4.581,2.495 10.011,4.004 14.919,5.782 -5.022,-1.799 -10.044,-3.599 -15.066,-5.399 5.038,1.779 10.107,3.321 15.359,4.33 -5.249,-0.952 -10.498,-1.905 -15.747,-2.858 3.235,0.539 6.446,0.853 9.726,0.924 -4.936,-0.041 -9.871,-0.082 -14.806,-0.123 3.516,-0.036 6.937,-0.367 10.398,-0.984 -4.406,0.806 -8.813,1.613 -13.22,2.42 3.728,-0.795 7.317,-2.147 10.836,-3.601 -3.664,1.591 -7.328,3.182 -10.992,4.773 4.933,-2.148 9.513,-4.763 13.673,-8.188 l -8.119,6.933 c 3.831,-3.36 6.915,-7.179 9.385,-11.638 -1.535,2.968 -3.07,5.936 -4.605,8.904 2.164,-4.256 3.374,-8.421 3.752,-13.188 -0.155,3.337 -0.31,6.675 -0.465,10.012 0.162,-4.77 -0.588,-9.254 -2.106,-13.77 1.188,3.355 2.376,6.71 3.565,10.065 -3.085,-8.322 -8.159,-15.614 -12.53,-23.279 -5.136,-9.004 -8.917,-18.923 -12.661,-28.566 -9.247,-23.812 -16.861,-48.223 -22.916,-73.032 -10.7,-43.838 -16.827,-88.756 -20.68,-133.675 -1.863,-21.723 18.665,-31.476 37.4,-33.042 15.495,-1.295 31.527,1.932 45.619,8.379 11.395,5.213 24.548,13.883 30.255,25.631 3.025,6.225 6.011,12.978 6.771,19.891 1.189,10.822 -0.992,15.704 -6.26,24.734 -4.537,7.779 -15.673,12.031 -23.363,15.083 -6.642,2.636 -14.085,3.551 -21.209,3.967 -11.684,0.683 -23.282,-0.017 -34.793,-1.861 -5.358,-0.859 -10.837,-2.254 -16.284,-2.331 l 14.805,0.123 c -3.648,0.039 -7.244,0.425 -10.834,1.07 l 13.22,-2.42 c -4.095,0.813 -8.065,1.953 -11.903,3.605 3.663,-1.591 7.327,-3.182 10.991,-4.773 -2.469,1.143 -4.771,2.457 -6.885,4.177 2.706,-2.312 5.413,-4.622 8.119,-6.934 -1.326,1.189 -2.432,2.44 -3.344,3.972 1.535,-2.968 3.07,-5.935 4.604,-8.903 -0.624,1.255 -1.001,2.458 -1.177,3.849 0.155,-3.338 0.309,-6.674 0.464,-10.012 -0.058,1.522 0.158,2.877 0.606,4.332 -1.189,-3.355 -2.377,-6.709 -3.566,-10.065 0.687,1.755 1.59,3.281 2.689,4.809 -2.377,-3.21 -4.755,-6.419 -7.133,-9.629 1.273,1.592 2.622,3.128 4.172,4.459 -3.412,-2.902 -6.826,-5.805 -10.239,-8.706 0.563,0.45 1.144,0.853 1.761,1.226 -4.295,-2.431 -8.589,-4.864 -12.884,-7.295 0.934,0.527 1.895,0.958 2.903,1.324 -5.023,-1.8 -10.045,-3.599 -15.067,-5.399 1.111,0.373 2.234,0.659 3.383,0.884 -5.249,-0.953 -10.498,-1.905 -15.747,-2.857 2.055,0.36 4.12,0.515 6.205,0.544 -4.935,-0.041 -9.87,-0.082 -14.806,-0.123 4.35,0.003 8.658,-0.522 12.933,-1.29 l -13.22,2.419 c 14.179,-2.66 27.846,-7.769 41.047,-13.483 -3.664,1.591 -7.328,3.182 -10.992,4.773 27.896,-12.181 55.336,-27.69 78.587,-47.469 -2.706,2.311 -5.413,4.622 -8.119,6.933 7.164,-6.155 14.572,-12.989 19.02,-21.458 -1.535,2.968 -3.069,5.936 -4.604,8.904 1.145,-2.277 2.031,-4.659 2.208,-7.219 -0.155,3.337 -0.31,6.675 -0.464,10.013 0.046,-1.32 -0.113,-2.564 -0.539,-3.815 1.188,3.355 2.377,6.709 3.565,10.065 -0.387,-0.974 -0.873,-1.851 -1.481,-2.704 2.378,3.209 4.756,6.419 7.133,9.628 -0.683,-0.874 -1.436,-1.642 -2.276,-2.365 3.413,2.903 6.826,5.805 10.239,8.706 -0.953,-0.763 -1.951,-1.43 -3.006,-2.045 4.295,2.432 8.589,4.865 12.884,7.296 -1.623,-0.888 -3.3,-1.619 -5.034,-2.261 5.022,1.8 10.044,3.6 15.067,5.4 -3.363,-1.179 -6.812,-1.997 -10.313,-2.642 5.249,0.952 10.498,1.905 15.747,2.858 -9.006,-1.571 -18.158,-2.033 -27.286,-2.14 4.936,0.041 9.87,0.082 14.806,0.123 -16.509,-0.13 -33.005,0.988 -49.429,2.575 -14.83,1.433 -29.936,2.824 -44.596,5.453 4.407,-0.806 8.813,-1.613 13.22,-2.42 -9.342,1.767 -18.425,4.343 -27.188,8.048 3.664,-1.59 7.327,-3.181 10.991,-4.772 -13.809,6.034 -26.489,14.567 -38.027,24.216 2.706,-2.312 5.413,-4.622 8.119,-6.934 -7.667,6.55 -14.53,13.901 -19.345,22.823 1.535,-2.967 3.07,-5.935 4.605,-8.903 -4.815,9.317 -6.804,19.425 -7.337,29.835 0.155,-3.338 0.31,-6.675 0.465,-10.013 -1.213,29.632 4.897,58.722 11,87.513 2.837,13.385 5.054,26.641 4.645,40.343 -0.375,12.59 -1.84,25.874 2.198,38.05 -1.188,-3.355 -2.377,-6.71 -3.565,-10.065 0.833,2.229 1.835,4.287 3.149,6.273 -2.377,-3.21 -4.755,-6.42 -7.133,-9.629 1.462,1.95 3.191,3.611 5.034,5.197 -3.413,-2.901 -6.826,-5.804 -10.239,-8.706 4.004,3.307 8.353,6.112 12.847,8.7 -4.294,-2.432 -8.588,-4.864 -12.883,-7.296 5.945,3.341 12.098,6.265 18.503,8.614 -5.021,-1.8 -10.044,-3.6 -15.066,-5.399 2.985,1.05 5.995,1.966 9.103,2.573 -5.249,-0.952 -10.498,-1.905 -15.747,-2.857 1.336,0.224 2.655,0.382 4.01,0.414 -17.402,10.973 -34.804,21.946 -52.205,32.919 -5.216,-35.946 -8.039,-71.538 -5.409,-107.848 2.458,-33.924 12.324,-66.523 26.872,-97.155 2.163,-6.927 6.405,-12.206 12.724,-15.837 7.508,-4.246 15.578,-6.644 24.212,-7.192 24.456,-2.045 51.442,6.669 68.741,24.381 11.476,11.751 16.638,26.797 21.08,42.228 3.801,13.198 6.268,26.788 8.694,40.292 5.82,32.398 10.39,65.102 18.547,97.031 1.965,7.688 4.194,15.314 6.838,22.798 -1.189,-3.355 -2.377,-6.71 -3.565,-10.064 3.236,9.033 7.058,18.026 12.714,25.837 -2.378,-3.209 -4.756,-6.419 -7.133,-9.629 1.937,2.611 4.071,5.038 6.548,7.151 -3.413,-2.902 -6.826,-5.804 -10.239,-8.706 1.328,1.095 2.72,2.074 4.217,2.925 -4.294,-2.431 -8.589,-4.864 -12.884,-7.296 1.013,0.549 2.047,1.027 3.124,1.436 -5.023,-1.799 -10.044,-3.599 -15.067,-5.399 1.073,0.38 2.156,0.68 3.271,0.904 -5.249,-0.953 -10.498,-1.905 -15.748,-2.858 1.137,0.2 2.27,0.314 3.424,0.348 l -14.806,-0.123 c 1.563,0.009 3.096,-0.134 4.634,-0.409 -4.406,0.807 -8.813,1.614 -13.219,2.42 0.952,-0.191 1.802,-0.431 2.721,-0.767 -3.664,1.59 -7.328,3.181 -10.992,4.772 1.707,-0.746 3.215,-1.626 4.678,-2.78 -2.706,2.311 -5.413,4.623 -8.119,6.934 1.83,-1.643 3.217,-3.475 4.394,-5.63 -1.535,2.967 -3.07,5.935 -4.605,8.903 5.577,-11.431 3.435,-24.817 7.443,-36.707 7.215,-21.402 18.513,-40.669 28.919,-60.63 -1.536,2.968 -3.07,5.935 -4.605,8.903 12.725,-24.727 19.336,-50.524 21.051,-78.239 -0.154,3.338 -0.309,6.676 -0.464,10.013 0.657,-14.252 -1.337,-28.6 -2.752,-42.752 -1.865,-18.669 -2.944,-37.086 -1.339,-55.841 0.502,-5.863 1.629,-11.766 4.147,-17.116 2.704,-5.744 5.819,-11.325 9.182,-16.713 3.114,-4.987 7.02,-7.765 11.839,-11.699 7.082,-5.783 18.397,-7.415 26.993,-8.637 10.283,-1.461 24.841,0.444 34.577,3.445 16.489,5.08 29.739,13.077 44.691,21.571 -4.294,-2.433 -8.589,-4.865 -12.883,-7.297 21.605,12.196 42.025,25.451 62.292,39.725 12.689,8.939 26.028,16.918 38.642,25.952 15.11,10.825 30.274,24.314 38.658,41.278 9.214,18.644 9.457,37.909 6.321,58.13 -1.689,10.888 -14.498,17.87 -23.716,20.608 C 78.065,55.865 62.504,54.88 48.423,51.107 25.733,45.028 -4.274,27.563 0,0"
             id="path54"
             style="fill:#00b4ff;fill-opacity:1;fill-rule:nonzero;stroke:none" /></g><g
           transform="translate(333.7891,489.0967)"
           id="g56"><path
             d="m 0,0 c 11.27,-2.499 22.044,-4.322 33.509,-4.333 12.653,-0.011 25.257,0.517 37.9,0.638 -4.939,-0.028 -9.877,-0.056 -14.816,-0.084 6.617,0.014 13.185,-0.293 19.711,-1.444 -4.412,0.827 -8.825,1.654 -13.237,2.481 3.931,-0.784 7.711,-1.869 11.425,-3.378 -3.671,1.617 -7.341,3.234 -11.012,4.851 2.808,-1.245 5.443,-2.684 8.003,-4.379 11.017,-7.294 26.367,-8.43 39.066,-7.249 15.435,1.436 30.941,6.675 43.686,15.592 9.575,6.699 18.982,16.55 20.874,28.632 1.762,11.244 -4.265,20.19 -13.268,26.15 -30.399,20.127 -66.854,16.144 -101.289,15.897 4.939,0.028 9.878,0.056 14.816,0.084 -5.878,0.005 -11.712,0.279 -17.513,1.275 4.413,-0.827 8.825,-1.654 13.237,-2.481 -0.925,0.169 -1.845,0.361 -2.76,0.576 C 53.379,76.144 39.476,76.387 24.528,72.382 10.432,68.604 -3.532,61.628 -13.629,50.866 -21.015,42.996 -26.769,32.003 -23.79,20.885 -20.976,10.385 -10.265,2.276 0,0"
             id="path58"
             style="fill:#00b4ff;fill-opacity:1;fill-rule:nonzero;stroke:none" /></g><g
           transform="translate(147.6055,357.7715)"
           id="g60"><path
             d="m 0,0 c -5.183,-15.591 -9.698,-31.456 -12.097,-47.736 -3.199,-21.71 -2.69,-45.5 11.042,-63.713 7.084,-9.396 21.27,-12.78 32.193,-13.607 15.492,-1.173 31.488,2.081 45.595,8.467 18.643,8.44 45.911,31.164 29.038,53.542 -1.038,1.378 -1.942,2.799 -2.764,4.316 1.514,-2.891 3.029,-5.782 4.543,-8.672 -3.099,6.219 -4.237,13.015 -4.6,19.902 0.134,-3.26 0.268,-6.521 0.403,-9.781 -0.858,23.387 6.056,46.798 13.363,68.777 3.319,9.984 -5.227,20.571 -13.009,25.18 -11.475,6.795 -25.953,7.95 -38.91,6.67 C 49.387,41.821 33.906,36.642 21.076,27.88 17.651,25.023 14.226,22.167 10.801,19.31 5.262,13.935 1.661,7.498 0,0"
             id="path62"
             style="fill:#00b4ff;fill-opacity:1;fill-rule:nonzero;stroke:none" /></g><g
           transform="translate(286.1709,90.834)"
           id="g64"><path
             d="m 0,0 c 21.287,-9.045 42.955,-14.395 65.858,-17.561 10.048,-1.388 20.201,-1.919 30.335,-2.095 6.017,-0.105 12.036,-0.071 18.053,-0.084 -11.262,0.052 -14.632,0.063 -10.111,0.032 0.934,-0.007 1.867,-0.016 2.801,-0.024 7.105,-0.062 14.211,-0.118 21.316,-0.046 32.493,0.329 67.404,6.864 96.253,22.13 8.553,4.525 17.402,9.79 24.073,16.966 3.687,3.966 7.953,8.924 8.808,14.504 0.768,5.032 0.881,8.862 -0.389,13.634 -0.876,3.296 -1.754,6.444 -1.532,9.89 l -0.618,-5.974 c 0.345,2.43 1.168,4.455 2.451,6.543 -1.513,-2.145 -3.026,-4.29 -4.538,-6.436 0.552,0.822 1.158,1.601 1.818,2.338 -36.919,-6.216 -73.837,-12.433 -110.755,-18.65 1.507,-3.714 2.244,-7.516 1.941,-11.525 l 0.618,5.973 c -0.503,-4.574 -2.298,-8.662 -4.923,-12.412 1.513,2.146 3.025,4.29 4.538,6.436 -2.346,-3.191 -5.122,-5.948 -8.172,-8.462 2.653,2.184 5.305,4.369 7.956,6.553 -2.431,-1.944 -4.978,-3.707 -7.624,-5.347 -3.864,-2.328 -1.08,-0.713 8.354,4.846 -0.862,-0.496 -1.738,-0.961 -2.615,-1.429 -1.792,-0.955 -3.626,-1.83 -5.471,-2.682 -4.714,-2.122 -1.23,-0.618 10.454,4.512 -0.959,-0.413 -1.929,-0.803 -2.899,-1.192 -1.629,-0.655 -3.281,-1.258 -4.935,-1.849 -0.666,-0.235 -1.334,-0.466 -2.003,-0.692 -7.094,-2.417 18.33,5.773 11.168,3.56 -2.024,-0.626 -4.068,-1.187 -6.117,-1.728 -1.692,-0.448 -3.396,-0.848 -5.101,-1.238 13.917,2.984 18.103,3.901 12.558,2.749 -1.005,-0.208 -2.014,-0.394 -3.022,-0.582 -1.648,-0.305 -3.303,-0.566 -4.961,-0.813 -0.97,-0.146 -1.944,-0.27 -2.918,-0.394 4.16,0.478 8.32,0.956 12.48,1.434 -0.629,-0.069 -1.259,-0.131 -1.889,-0.19 -1.526,-0.146 -3.056,-0.245 -4.587,-0.328 -0.882,-0.048 -1.764,-0.072 -2.647,-0.096 -4.117,-0.113 -10.143,0.187 9.194,-0.055 -2.79,0.035 -5.576,0.263 -8.334,0.691 3.39,-0.565 6.779,-1.131 10.168,-1.697 -1.684,0.29 -3.336,0.664 -4.965,1.186 -7.479,1.809 -15.063,2.39 -22.751,1.741 C 111.926,21.233 96.524,17.623 82.109,12.226 70.842,8.007 58.514,2.405 49.983,-6.423 c -1.512,-2.144 -3.025,-4.29 -4.537,-6.434 -1.792,-4.353 -0.824,-7.965 2.904,-10.838 8.41,-10.42 26.753,-12.524 38.986,-13.222 13.073,-0.745 25.893,0.582 38.91,0.678 15.032,0.109 31.26,4.688 45.209,9.911 11.268,4.219 23.596,9.82 32.126,18.648 4.614,4.776 8.337,12.226 1.634,17.273 -8.166,6.146 -20.495,5.114 -29.899,5.045 -4.92,-0.036 -9.833,-0.425 -14.747,-0.654 -1.278,-0.059 -2.558,-0.097 -3.838,-0.133 -9.203,-0.257 13.034,-0.212 6.124,-0.032 -2.926,0.077 -5.835,0.372 -8.721,0.848 3.388,-0.565 6.778,-1.131 10.167,-1.697 -2.658,0.513 -5.195,1.22 -7.679,2.306 2.383,-1.101 4.765,-2.203 7.148,-3.303 -2.587,1.282 -4.734,2.864 -6.553,5.119 C 123.31,2.395 89.403,-12.302 55.497,-26.999 c 20.889,-6.685 44.585,-3.697 65.839,-0.995 22.844,2.905 46.648,9.414 67.931,18.165 21.392,8.797 44.73,19.419 60.336,37.18 9.342,10.634 15.835,24.815 10.13,38.875 -2.07,4.528 -5.626,7.251 -10.669,8.168 -11.8,3.379 -25.278,2.067 -37.145,0.086 -10.532,-1.781 -20.803,-4.533 -30.815,-8.256 -10.515,-3.938 -24.63,-9.648 -32.125,-18.649 -6.551,-7.866 -10.61,-14.861 -9.289,-25.349 0.581,-4.601 2.728,-8.757 2.403,-13.488 l 0.618,5.974 c -0.347,-2.265 -1.163,-4.095 -2.451,-5.983 1.512,2.146 3.024,4.291 4.537,6.435 -1.163,-1.442 -2.403,-2.79 -3.81,-3.998 l 7.957,6.554 c -6.265,-4.849 12.373,6.67 6.719,3.677 -4.648,-2.235 -1.191,-0.746 10.372,4.467 -5.318,-1.971 -1.309,-0.719 12.026,3.758 -0.746,-0.226 -1.495,-0.436 -2.249,-0.63 -5.541,-1.357 -1.517,-0.491 12.076,2.598 -2.041,-0.426 -4.109,-0.721 -6.173,-0.998 12.292,1.351 15.821,1.762 10.588,1.233 -0.85,-0.081 -1.7,-0.153 -2.552,-0.218 -1.69,-0.136 -3.385,-0.222 -5.079,-0.305 -3.599,-0.175 -7.203,-0.215 -10.806,-0.225 -6.614,-0.018 15.472,-0.086 7.308,-0.02 -1.222,0.009 -2.444,0.021 -3.665,0.03 -6.333,0.045 -25.192,0.166 -5.272,0.023 -2.961,0.021 -5.922,0.102 -8.882,0.203 -9.921,0.335 -19.813,1.276 -29.612,2.871 3.39,-0.567 6.778,-1.132 10.168,-1.698 -17.055,2.917 -33.432,8.15 -49.339,14.909 -3.389,0.565 -6.778,1.13 -10.167,1.697 C 75.353,49.617 66.36,49.08 57.426,47.481 42.244,44.947 27.1,40.374 13.319,33.46 5.163,29.368 -6.195,23.214 -10.051,14.142 -13.573,5.856 -6.041,2.566 0,0"
             id="path66"
             style="fill:#00b4ff;fill-opacity:1;fill-rule:nonzero;stroke:none" /></g><g
           transform="translate(398.2695,65.5508)"
           id="g68"><path
             d="M 0,0 C 0.246,0.633 0.631,0.843 1.275,1.173 0.788,0.943 0.292,0.734 -0.213,0.547 1.642,1.281 -1.077,0.344 -1.249,0.294 c -3.034,-0.871 -6.038,-1.721 -8.985,-2.87 -6.454,-2.517 -11.398,-7.581 -10.229,-14.804 5.576,1.957 11.152,3.915 16.729,5.873 -3.098,3.217 -7.013,5 -10.689,7.431 -3.573,2.362 -15.63,0.169 -15.577,-5.424 0.061,-6.431 9.047,-11.856 13.47,-15.51 2.814,-2.324 5.464,-4.903 8.558,-6.848 3.887,-2.443 9.171,-3.616 11.667,-7.737 2.309,-3.81 10.94,-1.554 13.552,0.506 13.034,10.277 25.489,21.488 35.149,35.086 1.266,1.781 0.477,3.94 -1.319,4.927 C 47.857,2.692 43.864,1.728 40.658,0.536 33.512,-2.119 26.454,-4.993 19.143,-7.172 17.189,-7.754 15.209,-8.229 13.22,-8.667 11.769,-8.985 12.686,-9.045 11.56,-8.454 8.451,-6.82 5.861,-5.076 2.453,-3.953 -1.029,-7.352 -4.51,-10.75 -7.992,-14.148 c 6.857,-1.97 12.764,-5.843 20.06,-6.332 2.035,-0.137 4.091,0.232 6.085,0.575 0.075,0.012 2.877,0.319 1.156,0.279 -2.241,-0.054 -1.631,2.313 -1.809,-0.374 0.056,0.84 1.293,1.451 2,1.797 1.885,0.921 -1.312,-0.189 0.196,0.061 -2.088,-0.345 -3.974,-0.212 -6.207,0.037 -1.19,0.132 -2.304,0.607 -3.335,1.189 0.479,-0.271 -0.959,1.143 -0.93,1.108 -0.258,0.237 -0.432,0.515 -0.523,0.834 -0.787,3.367 -3.196,1.877 -7.229,-4.466 3.916,-0.337 9.288,1.411 11.424,4.937 2.221,3.664 -1.886,5.582 -4.907,5.842 -5.468,0.471 -13.584,-0.726 -16.345,-6.289 -1.708,-3.442 0.4,-7.256 3.047,-9.579 6.877,-6.037 18.923,-5.202 27.18,-3.457 4.724,0.998 9.227,3.464 12.102,7.363 2.573,3.489 0.832,8.334 -2.452,10.437 -3.625,2.322 -8.998,1.312 -12.943,0.646 -0.551,-0.093 -2.741,0.023 -0.589,-0.121 -1.457,0.098 -3.05,0.829 -4.378,1.373 -3.712,1.517 -7.291,3.225 -11.158,4.335 -4.009,1.151 -9.349,-0.419 -12.294,-3.294 -2.865,-2.796 -1.662,-5.744 1.849,-6.901 3.341,-1.103 5.836,-3.806 9.285,-4.707 5.366,-1.404 10.676,-0.422 15.987,0.746 10.481,2.304 20.495,6.746 30.523,10.471 -3.913,1.513 -7.826,3.027 -11.739,4.539 -8.138,-11.455 -18.857,-21.245 -29.85,-29.914 4.516,0.169 9.034,0.337 13.552,0.506 -3.728,6.153 -12.658,8.336 -18.075,12.814 -2.744,2.269 -5.496,4.526 -8.175,6.874 -1.353,1.184 -2.662,2.414 -3.935,3.683 -0.766,0.765 -2.138,3.448 -2.12,1.534 -5.192,-1.808 -10.385,-3.616 -15.577,-5.423 2.789,-1.844 5.975,-3.143 8.311,-5.57 4.024,-4.179 17.849,-1.051 16.729,5.873 -0.09,0.555 -0.227,1.63 -0.05,2.016 0.534,1.161 0.058,0.014 -0.713,-0.372 0.501,0.231 1.011,0.442 1.53,0.633 -0.906,-0.331 -0.832,-0.326 0.222,0.013 1.427,0.43 2.873,0.798 4.306,1.21 6.346,1.824 12.709,4.618 15.242,11.12 C 19,5.849 11.829,6.498 9.78,6.274 5.749,5.835 1.536,3.942 0,0"
             id="path70"
             style="fill:#00b4ff;fill-opacity:1;fill-rule:nonzero;stroke:none" /></g><g
           transform="translate(129.8892,314.1045)"
           id="g72"><path
             d="m 0,0 c -1.385,-6.265 -0.617,-12.746 -2,-19 5.228,1.674 10.457,3.348 15.685,5.022 -5.908,1.544 -0.348,12.336 1.537,15.269 C 17.139,4.274 8.833,3.72 8.095,3.601 4.518,3.02 0.067,1.717 -2,-1.5 c -3.659,-5.694 -7.817,-17.286 1.537,-19.731 2.585,-0.675 5.396,-0.253 7.931,0.426 2.029,0.544 7.182,2.013 7.754,4.596 1.385,6.265 0.617,12.746 2,19 C 18.282,7.585 1.053,4.762 0,0"
             id="path74"
             style="fill:#00b4ff;fill-opacity:1;fill-rule:nonzero;stroke:none" /></g><g
           transform="translate(437.5146,566.3013)"
           id="g76"><path
             d="m 0,0 c -7.298,1.44 -17.182,2.571 -22.991,6.061 -0.656,0.394 0.187,-0.092 -0.598,-1.211 1.134,1.616 2.57,2.87 3.652,4.558 2.697,4.206 0.024,8.27 -3.874,10.298 -5.302,2.759 -16.567,0.496 -15.397,-7.337 0.656,-4.392 4.845,-6.647 8.482,-8.3 1.545,-0.701 3.174,-1.217 4.751,-1.84 1.921,-0.758 -1.082,0.715 0.411,-0.208 -1.29,0.798 -1.397,3.146 -0.457,4.216 0.785,0.892 -0.484,-0.225 -0.838,-0.433 -2.04,-1.198 0.436,-0.085 -1.262,-0.573 -1.9,-0.546 -3.198,-0.564 -5.819,-0.668 -1.743,-0.068 -3.81,0.083 -5.395,0.478 0.28,-0.07 -2.405,0.872 -1.667,0.489 -0.528,0.275 -0.927,0.783 -0.819,0.498 -2.368,-2.755 -4.736,-5.51 -7.103,-8.265 6.379,2.294 15.589,1.546 19.219,9.451 4.148,9.036 -13.415,8.948 -16.619,1.97 3.988,2.214 4.815,2.941 2.481,2.183 -2.165,-0.59 0.196,-0.026 -2.06,-0.389 -2.087,-0.336 -4.207,-0.625 -6.202,-1.343 -2.959,-1.065 -8.703,-4.024 -7.103,-8.266 2.708,-7.182 11.256,-8.95 18.117,-9.409 7.769,-0.52 16.271,0.316 23.087,4.318 5.505,3.233 13.33,10.063 5.847,15.757 -2.004,1.525 -4.804,2.272 -7.137,3.158 -1.652,0.627 -0.791,0.159 -2.217,1.069 -0.849,0.541 -0.181,-0.095 -0.31,0.766 -5.133,-2.445 -10.265,-4.891 -15.397,-7.337 1.695,-0.881 1.669,-1.847 0.845,0.231 -0.614,1.551 1.319,3.42 -0.394,1.581 -1.337,-1.435 -2.627,-3.011 -3.351,-4.852 -1.866,-4.744 0.817,-9.128 5.044,-11.348 8.838,-4.642 19.354,-5.993 29.045,-7.906 C 2.504,-14.286 11.574,-2.284 0,0"
             id="path78"
             style="fill:#00b4ff;fill-opacity:1;fill-rule:nonzero;stroke:none" /></g><g
           transform="translate(625.9121,355.1519)"
           id="g80"><path
             d="m 0,0 c 4.305,-4.212 4.131,-11.147 4.005,-16.761 -0.146,-6.514 -0.991,-13.377 0.89,-19.72 1.653,-5.573 16.785,-1.527 17.371,3.474 0.636,5.422 -0.573,11.121 -1.123,16.505 -0.324,3.166 -0.614,6.373 -0.492,9.557 0.046,1.18 0.211,2.344 0.434,3.503 0.568,2.963 1.88,1.353 -2.115,-0.087 L 7.5,-3.5 c 7.888,-11.592 4.544,-27.542 8.395,-40.481 1.791,-6.019 15.997,-1.067 17.371,3.474 3.21,10.6 1.212,21.754 3.5,32.5 -5.79,-1.159 -11.581,-2.316 -17.371,-3.474 1.097,-6.126 2.025,-12.429 4.778,-18.075 2.839,-5.821 8.367,-7.714 13.931,-10.107 5.077,-2.182 6.321,-7.437 6.981,-12.464 0.392,-2.985 0.407,-10.535 -2.344,-12.122 -2.257,-1.302 -5.358,-4.821 -1.599,-6.506 3.764,-1.687 8.923,-0.245 12.293,1.7 10.752,6.205 11.772,21.804 5.716,31.764 -3.712,6.106 -11.288,5.933 -16.125,10.464 -4.714,4.417 -5.174,14.032 -6.245,20.005 -1.05,5.859 -16.381,1.175 -17.371,-3.474 -2.289,-10.746 -0.291,-21.899 -3.5,-32.5 5.79,1.158 11.581,2.316 17.371,3.474 C 29.085,-25.224 32.327,-9.52 23.676,3.196 21.592,6.259 14.72,4.131 12.206,3.226 -3.833,-2.555 6.314,-23.316 4.91,-35.296 c 5.79,1.158 11.581,2.316 17.371,3.474 C 18.71,-19.781 26.212,-3.126 16.176,6.696 11.95,10.832 -4.439,4.346 0,0"
             id="path82"
             style="fill:#00b4ff;fill-opacity:1;fill-rule:nonzero;stroke:none" /></g></g></g><g
       id="g84"><g
         clip-path="url(#clipPath88)"
         id="g86"><g
           transform="translate(411.9082,497.4321)"
           id="g92"><path
             d="m 0,0 c -10.935,0 -19.792,-8.451 -19.792,-18.871 0,-5.847 2.788,-11.077 7.17,-14.538 4.237,-116.4 7.323,-230.409 12.837,-349.456 1.683,15.125 4.633,85.77 11.977,349.148 4.625,3.454 7.617,8.813 7.617,14.846 C 19.809,-8.451 10.935,0 0,0"
             id="path94"
             style="fill:#ffffff;fill-opacity:1;fill-rule:nonzero;stroke:none" /></g><g
           transform="translate(411.9082,497.4321)"
           id="g96"><path
             d="m 0,0 c -10.935,0 -19.792,-8.451 -19.792,-18.871 0,-5.847 2.788,-11.077 7.17,-14.538 4.237,-116.4 7.323,-230.409 12.837,-349.456 1.683,15.125 4.633,85.77 11.977,349.148 4.625,3.454 7.617,8.813 7.617,14.846 C 19.809,-8.451 10.935,0 0,0 z"
             id="path98"
             style="fill:none;stroke:#ffffff;stroke-width:8.07400036;stroke-linecap:round;stroke-linejoin:round;stroke-miterlimit:4;stroke-opacity:1;stroke-dasharray:none" /></g><g
           transform="translate(346.248,436.8652)"
           id="g100"><path
             d="m 0,0 c -0.31,0.578 -3.945,0.995 -8.079,0.926 -4.134,-0.068 -8.085,0.28 -8.779,0.774 -0.695,0.493 -1.281,0.048 -1.302,-0.99 -0.029,-1.494 1.918,-1.874 9.343,-1.824 C -3.658,-1.079 0.31,-0.578 0,0"
             id="path102"
             style="fill:#ffffff;fill-opacity:1;fill-rule:nonzero;stroke:none" /></g><g
           transform="translate(346.248,436.8652)"
           id="g104"><path
             d="m 0,0 c -0.31,0.578 -3.945,0.995 -8.079,0.926 -4.134,-0.068 -8.085,0.28 -8.779,0.774 -0.695,0.493 -1.281,0.048 -1.302,-0.99 -0.029,-1.494 1.918,-1.874 9.343,-1.824 C -3.658,-1.079 0.31,-0.578 0,0 z"
             id="path106"
             style="fill:none;stroke:#ffffff;stroke-width:1;stroke-linecap:butt;stroke-linejoin:miter;stroke-miterlimit:10;stroke-opacity:1;stroke-dasharray:none" /></g><g
           transform="translate(355.9873,445.0513)"
           id="g108"><path
             d="M 0,0 C 0.329,0.007 0.717,-0.043 1.102,-0.17 2.126,-0.505 2.823,-1.225 2.648,-1.759 2.473,-2.293 1.49,-2.455 0.465,-2.119 -0.56,-1.783 -1.257,-1.064 -1.082,-0.53 -0.973,-0.196 -0.551,-0.012 0,0 M 12.926,7.268 C -2.043,7.055 -16.78,0.691 -18.033,-2.755 c 1.929,-3.703 26.853,-1.007 6.929,-10.425 8.106,-5.316 21.01,-4.022 34.751,-1.59 25.839,2.407 32.548,2.674 53.843,0 35.818,-3.3 51.783,-55.268 1.06,-63.886 -5.84,-1.475 -9.619,-0.89 -14.176,-1.081 L 64.12,-99.529 c 20.563,-0.96 32.366,4.962 44.626,10.701 21.231,12.742 36.344,51.118 0.805,80.458 C 96.411,2.895 61.887,6.643 25.258,5.806 21.323,6.909 17.116,7.328 12.926,7.268"
             id="path110"
             style="fill:#ffffff;fill-opacity:1;fill-rule:nonzero;stroke:none" /></g><g
           transform="translate(355.9873,445.0513)"
           id="g112"><path
             d="M 0,0 C 0.329,0.007 0.717,-0.043 1.102,-0.17 2.126,-0.505 2.823,-1.225 2.648,-1.759 2.473,-2.293 1.49,-2.455 0.465,-2.119 -0.56,-1.783 -1.257,-1.064 -1.082,-0.53 -0.973,-0.196 -0.551,-0.012 0,0 z M 12.926,7.268 C -2.043,7.055 -16.78,0.691 -18.033,-2.755 c 1.929,-3.703 26.853,-1.007 6.929,-10.425 8.106,-5.316 21.01,-4.022 34.751,-1.59 25.839,2.407 32.548,2.674 53.843,0 35.818,-3.3 51.783,-55.268 1.06,-63.886 -5.84,-1.475 -9.619,-0.89 -14.176,-1.081 L 64.12,-99.529 c 20.563,-0.96 32.366,4.962 44.626,10.701 21.231,12.742 36.344,51.118 0.805,80.458 C 96.411,2.895 61.887,6.643 25.258,5.806 21.323,6.909 17.116,7.328 12.926,7.268 z"
             id="path114"
             style="fill:none;stroke:#ffffff;stroke-width:1;stroke-linecap:butt;stroke-linejoin:miter;stroke-miterlimit:10;stroke-opacity:1;stroke-dasharray:none" /></g><g
           transform="translate(401.8594,364.3521)"
           id="g116"><path
             d="m 0,0 c -19.337,-1.509 -31.311,-5.401 -39.668,-12.565 -30.727,-24.948 -14.982,-56.352 4.811,-68.231 14.801,-7.541 25.423,-10.307 37.717,-10.129 50.685,-1.66 47.156,-34.53 24.008,-44.414 -5.262,-1.293 -7.581,-1.854 -11.686,-2.022 l -1.303,-16.286 c 7.032,-0.308 14.234,0.282 25.28,5.318 19.128,11.181 35.848,41.881 4.641,64.226 -9.83,6.629 -22.021,10.168 -40.074,11.339 -4.475,0.108 -9.212,0.528 -13.134,1.44 -42.077,11.73 -37.745,52.015 9.408,51.511 L 0,0 z"
             id="path118"
             style="fill:#ffffff;fill-opacity:1;fill-rule:nonzero;stroke:none" /></g><g
           transform="translate(401.8594,364.3521)"
           id="g120"><path
             d="m 0,0 c -19.337,-1.509 -31.311,-5.401 -39.668,-12.565 -30.727,-24.948 -14.982,-56.352 4.811,-68.231 14.801,-7.541 25.423,-10.307 37.717,-10.129 50.685,-1.66 47.156,-34.53 24.008,-44.414 -5.262,-1.293 -7.581,-1.854 -11.686,-2.022 l -1.303,-16.286 c 7.032,-0.308 14.234,0.282 25.28,5.318 19.128,11.181 35.848,41.881 4.641,64.226 -9.83,6.629 -22.021,10.168 -40.074,11.339 -4.475,0.108 -9.212,0.528 -13.134,1.44 -42.077,11.73 -37.745,52.015 9.408,51.511 L 0,0 z"
             id="path122"
             style="fill:none;stroke:#ffffff;stroke-width:1;stroke-linecap:butt;stroke-linejoin:miter;stroke-miterlimit:10;stroke-opacity:1;stroke-dasharray:none" /></g><g
           transform="translate(406.7578,226.3213)"
           id="g124"><path
             d="m 0,0 1.069,-16.279 c -31.653,0.912 -38.605,-60.08 32.895,-60.045 -20.082,-7.44 -35.513,-6.615 -46.942,-1.266 -20.06,7.604 -30.726,40.611 -18.175,60.48 C -24.133,-8.074 -19.337,-1.51 0,0"
             id="path126"
             style="fill:#ffffff;fill-opacity:1;fill-rule:nonzero;stroke:none" /></g><g
           transform="translate(406.7578,226.3213)"
           id="g128"><path
             d="m 0,0 1.069,-16.279 c -31.653,0.912 -38.605,-60.08 32.895,-60.045 -20.082,-7.44 -35.513,-6.615 -46.942,-1.266 -20.06,7.604 -30.726,40.611 -18.175,60.48 C -24.133,-8.074 -19.337,-1.51 0,0 z"
             id="path130"
             style="fill:none;stroke:#ffffff;stroke-width:1;stroke-linecap:butt;stroke-linejoin:miter;stroke-miterlimit:10;stroke-opacity:1;stroke-dasharray:none" /></g></g></g></g></svg>