<?xml version="1.0" encoding="UTF-8" standalone="no"?>
<!-- Generator: Adobe Illustrator 16.0.0, SVG Export Plug-In . SVG Version: 6.00 Build 0)  -->

<svg
   xmlns:dc="http://purl.org/dc/elements/1.1/"
   xmlns:cc="http://creativecommons.org/ns#"
   xmlns:rdf="http://www.w3.org/1999/02/22-rdf-syntax-ns#"
   xmlns:svg="http://www.w3.org/2000/svg"
   xmlns="http://www.w3.org/2000/svg"
   xmlns:sodipodi="http://sodipodi.sourceforge.net/DTD/sodipodi-0.dtd"
   xmlns:inkscape="http://www.inkscape.org/namespaces/inkscape"
   version="1.1"
   id="Layer_1"
   x="0px"
   y="0px"
   width="100px"
   height="100px"
   viewBox="0 0 100 100"
   enable-background="new 0 0 100 100"
   xml:space="preserve"
   inkscape:version="0.48.5 r10040"
   sodipodi:docname="clinic_case.svg"><metadata
     id="metadata17"><rdf:RDF><cc:Work
         rdf:about=""><dc:format>image/svg+xml</dc:format><dc:type
           rdf:resource="http://purl.org/dc/dcmitype/StillImage" /></cc:Work></rdf:RDF></metadata><defs
     id="defs15" /><sodipodi:namedview
     pagecolor="#ffffff"
     bordercolor="#666666"
     borderopacity="1"
     objecttolerance="10"
     gridtolerance="10"
     guidetolerance="10"
     inkscape:pageopacity="0"
     inkscape:pageshadow="2"
     inkscape:window-width="1366"
     inkscape:window-height="703"
     id="namedview13"
     showgrid="false"
     inkscape:zoom="2.36"
     inkscape:cx="50"
     inkscape:cy="50"
     inkscape:window-x="0"
     inkscape:window-y="35"
     inkscape:window-maximized="1"
     inkscape:current-layer="Layer_1" /><g
     id="g3"
     style="fill:#ffffff"><path
       d="M79.313,4.454H62.949V3.34c0-1.257-1.02-2.276-2.277-2.276H39.328c-1.257,0-2.276,1.02-2.276,2.276v1.114H20.688   c-2.825,0-5.123,2.298-5.123,5.123v84.237c0,2.825,2.298,5.123,5.123,5.123h58.624c2.824,0,5.122-2.298,5.122-5.123V9.577   C84.435,6.752,82.137,4.454,79.313,4.454z M78.743,93.245H21.257V10.146h15.795v0.681c0,1.257,1.02,2.277,2.276,2.277h21.344   c1.258,0,2.277-1.02,2.277-2.277v-0.681h15.794V93.245z"
       id="path5"
       style="fill:#ffffff" /><rect
       x="30.269"
       y="54.933"
       width="39.462"
       height="7.968"
       id="rect7"
       style="fill:#ffffff" /><rect
       x="30.269"
       y="71.25"
       width="39.462"
       height="7.968"
       id="rect9"
       style="fill:#ffffff" /><polygon
       points="46.49,46.396 53.511,46.396 53.511,37.478 62.428,37.478 62.428,30.458 53.511,30.458 53.511,21.541 46.49,21.541    46.49,30.458 37.573,30.458 37.573,37.478 46.49,37.478  "
       id="polygon11"
       style="fill:#ffffff" /></g></svg>